<svg width="208" height="40" viewBox="0 0 208 40" fill="none" xmlns="http://www.w3.org/2000/svg">
<rect width="40" height="40" rx="12" fill="#3E63DD"/>
<path d="M24.0029 13.9912C24.7657 13.9913 25.4603 14.4547 25.7471 15.1729C26.3523 16.6867 26.8389 18.5372 27.209 20.7217C27.99 25.3427 28 29.8806 28 30.0732C28 31.137 27.1501 32 26.1035 32C25.0569 32 24.207 31.137 24.207 30.0732C24.207 30.0577 24.2062 29.6646 24.1865 29.0078C24.147 27.7083 23.7097 26.4407 22.8906 25.4434C22.0595 24.4323 21.0024 23.8477 20 23.8477C18.9974 23.8477 17.9275 24.446 17.1084 25.4434C16.2894 26.4407 15.853 27.7083 15.8135 29.0078C15.7923 29.666 15.792 30.059 15.792 30.0732C15.792 31.1384 14.9429 31.9998 13.8965 32C12.8484 32 12 31.137 12 30.0732C12 29.8806 12.0094 25.3412 12.792 20.7217C13.1621 18.5372 13.6487 16.6868 14.2539 15.1729C14.5406 14.4547 15.2353 13.9913 15.998 13.9912C17.3329 13.9912 18.2495 15.3616 17.752 16.6211C17.2893 17.7943 16.8558 19.3994 16.5039 21.5283C17.5611 20.8485 18.7502 20.458 20 20.458C21.2498 20.4581 22.4394 20.8465 23.498 21.5264C23.1461 19.3973 22.7117 17.7923 22.249 16.6191C21.7517 15.3597 22.6682 13.9893 24.0029 13.9893V13.9912ZM19.9941 8.00195C21.397 8.0022 22.5688 9.17791 22.5977 10.6191C22.5977 12.1484 21.2952 13.3973 19.7041 13.2217C18.5179 13.0891 17.5621 12.1177 17.418 10.9121C17.2451 9.35353 18.4743 8 19.9941 8V8.00195Z" fill="white"/>
<path d="M56.1461 25.9705V16.0267H53.2935C52.9371 16.0267 52.6325 15.8992 52.3797 15.6418C52.127 15.3856 52 15.0835 52 14.7367C52 14.3899 52.1257 14.0681 52.3797 13.8107C52.6325 13.5545 52.9371 13.4258 53.2935 13.4258H61.9344C62.2895 13.4258 62.5941 13.5545 62.8481 13.8107C63.1009 14.0668 63.2279 14.3755 63.2279 14.7367C63.2279 15.098 63.1009 15.3856 62.8481 15.6418C62.5954 15.8979 62.2908 16.0267 61.9344 16.0267H59.0818V25.9705C59.0818 26.3724 58.9379 26.7192 58.6502 27.0108C58.3624 27.3024 58.0203 27.4482 57.6237 27.4482C57.2271 27.4482 56.8642 27.3024 56.5764 27.0108C56.2887 26.7192 56.1448 26.3724 56.1448 25.9705H56.1461Z" fill="#1C2024"/>
<path d="M67.23 16.9002C68.6531 16.9002 69.8365 17.3758 70.7813 18.3255C71.7261 19.2752 72.1979 20.4233 72.1979 21.7684C72.1979 22.5999 71.6847 23.0163 70.6582 23.0163H64.8284C64.9101 23.6954 65.2082 24.2537 65.7214 24.6911C66.2347 25.1285 66.8879 25.3465 67.6811 25.3465C68.3654 25.3465 69.0355 25.1587 69.6926 24.7843C69.8287 24.7016 69.9933 24.6595 70.1851 24.6595C70.4586 24.6595 70.6983 24.7633 70.9031 24.9722C71.1079 25.181 71.2116 25.4227 71.2116 25.6999C71.2116 26.1019 71.0263 26.4066 70.6569 26.6155C69.6991 27.1698 68.6104 27.447 67.3934 27.447C65.8601 27.447 64.5951 26.9583 63.5959 25.9797C62.5966 25.0024 62.0976 23.7295 62.0976 22.1624C62.0976 20.6925 62.5836 19.4473 63.5544 18.4279C64.5264 17.4086 65.7512 16.8989 67.2288 16.8989L67.23 16.9002ZM64.787 21.2272H69.6719C69.6304 20.6032 69.3984 20.0765 68.9746 19.6456C68.5508 19.2161 67.9688 19.0007 67.23 19.0007C66.5328 19.0007 65.9703 19.2161 65.5465 19.6456C65.1226 20.0752 64.8686 20.6032 64.787 21.2272Z" fill="#1C2024"/>
<path d="M73.4487 25.5133C73.4487 25.2086 73.555 24.9485 73.7663 24.7331C73.9788 24.5176 74.2354 24.4112 74.5361 24.4112C74.728 24.4112 74.912 24.4598 75.0909 24.5571C75.9942 25.1258 76.8898 25.4096 77.7802 25.4096C78.8884 25.4096 79.4431 25.0693 79.4431 24.3902C79.4431 24.0855 79.2888 23.8464 78.9817 23.673C78.6732 23.4996 78.1639 23.3433 77.4523 23.2054C76.6449 23.0675 75.9877 22.9006 75.4823 22.7062C74.1953 22.2767 73.5524 21.3953 73.5524 20.0646C73.5524 19.1766 73.9218 18.4279 74.6606 17.8184C75.3993 17.2089 76.3843 16.9028 77.6169 16.9028C78.8495 16.9028 79.9226 17.201 80.8804 17.7974C81.2226 17.9773 81.3937 18.269 81.3937 18.6709C81.3937 18.9481 81.2939 19.1871 81.0956 19.3881C80.8973 19.5891 80.6614 19.6902 80.3879 19.6902C80.1831 19.6902 80.0185 19.6482 79.8954 19.5655C79.2111 19.1359 78.4581 18.9205 77.6376 18.9205C77.1581 18.9205 76.7783 19.0032 76.4984 19.1701C76.2171 19.3369 76.0772 19.5655 76.0772 19.8571C76.0772 20.1487 76.2171 20.3497 76.4984 20.502C76.7783 20.6544 77.2683 20.8002 77.9656 20.9395C78.6628 21.0642 79.3264 21.2376 79.9563 21.4596C81.2835 21.9457 81.9471 22.8678 81.9471 24.226C81.9471 25.1692 81.5635 25.9429 80.7975 26.5458C80.0315 27.1487 78.9843 27.4509 77.6571 27.4509C76.3299 27.4509 75.0572 27.1251 74.0035 26.4736C73.6341 26.266 73.4487 25.9468 73.4487 25.516V25.5133Z" fill="#1C2024"/>
<path d="M89.7119 26.1991C89.7119 26.7258 89.4514 27.0726 88.9317 27.2394C88.5623 27.3773 88.1113 27.447 87.5773 27.447C86.661 27.447 85.9624 27.2105 85.4841 26.7403C85.0046 26.2687 84.7661 25.5896 84.7661 24.7016V19.4591H84.1297C83.8148 19.4591 83.5452 19.3488 83.3184 19.1268C83.0929 18.9048 82.9801 18.6342 82.9801 18.315C82.9801 17.9958 83.0929 17.7225 83.3184 17.4927C83.5439 17.2641 83.8148 17.1498 84.1297 17.1498H84.7661V15.5893C84.7661 15.2294 84.8957 14.9167 85.1562 14.6527C85.4167 14.3887 85.7304 14.2573 86.101 14.2573C86.4717 14.2573 86.7608 14.3887 87.0148 14.6527C87.2675 14.9167 87.3945 15.2281 87.3945 15.5893V17.1498H88.421C88.736 17.1498 89.003 17.2641 89.222 17.4927C89.441 17.7212 89.5499 17.9958 89.5499 18.315C89.5499 18.6342 89.4397 18.8877 89.222 19.1163C89.003 19.3448 88.736 19.4591 88.421 19.4591H87.3945V23.9936C87.3945 24.3259 87.4736 24.5939 87.6304 24.7948C87.7872 24.9958 88.0037 25.097 88.2772 25.097C88.3459 25.097 88.4275 25.0904 88.5234 25.076C88.6193 25.0628 88.6802 25.0549 88.7088 25.0549C89.0094 25.0694 89.2531 25.1837 89.4371 25.3978C89.6225 25.6132 89.7145 25.8799 89.7145 26.1991H89.7119Z" fill="#1C2024"/>
<path d="M107.668 25.9492C107.668 26.3657 107.52 26.719 107.227 27.0106C106.933 27.3022 106.58 27.448 106.169 27.448C105.854 27.448 105.571 27.3548 105.318 27.1669C105.065 26.9791 104.89 26.74 104.794 26.4497L104.24 24.8275H98.0819L97.5272 26.4497C97.4312 26.7413 97.2537 26.9804 96.9932 27.1669C96.7327 27.3548 96.4462 27.448 96.1313 27.448C95.7204 27.448 95.3718 27.3022 95.0841 27.0106C94.7963 26.719 94.6525 26.3657 94.6525 25.9492C94.6525 25.852 94.6862 25.6786 94.7549 25.4291L98.7571 14.9441C98.949 14.4449 99.2626 14.043 99.702 13.7369C100.14 13.4322 100.626 13.2798 101.159 13.2798C101.691 13.2798 102.177 13.4322 102.616 13.7369C103.054 14.0417 103.369 14.4436 103.56 14.9441L107.542 25.4291C107.624 25.6235 107.665 25.7969 107.665 25.9492H107.668ZM98.9852 22.2673H103.336L101.16 15.9844L98.9839 22.2673H98.9852Z" fill="#1C2024"/>
<path d="M109.473 25.9703V14.7576C109.473 14.3556 109.617 14.0088 109.905 13.7172C110.192 13.4256 110.541 13.2798 110.952 13.2798C111.363 13.2798 111.687 13.4256 111.968 13.7172C112.248 14.0088 112.389 14.3556 112.389 14.7576V25.9703C112.389 26.3722 112.249 26.719 111.968 27.0106C111.687 27.3022 111.348 27.448 110.952 27.448C110.555 27.448 110.192 27.3022 109.905 27.0106C109.617 26.719 109.473 26.3722 109.473 25.9703Z" fill="#1C2024"/>
</svg>
